<svg width="40" height="40" viewBox="0 0 40 40" fill="none" xmlns="http://www.w3.org/2000/svg">
<circle cx="20" cy="20" r="20" fill="white"/>
<path fill-rule="evenodd" clip-rule="evenodd" d="M38.182 20.0002C38.182 9.95864 30.0417 1.81836 20.0002 1.81836C9.95864 1.81836 1.81836 9.95864 1.81836 20.0002C1.81836 30.0417 9.95864 38.182 20.0002 38.182C30.0417 38.182 38.182 30.0417 38.182 20.0002ZM30.3964 16.329C29.7308 16.9946 28.9212 17.4285 28.0679 17.6306C28.8984 20.4773 28.1912 23.6774 25.9465 25.9221C23.7706 28.098 20.6972 28.8292 17.918 28.1157C17.7562 29.087 17.3006 30.0189 16.5512 30.7682C14.6395 32.6799 11.5401 32.6799 9.62848 30.7682C7.71683 28.8566 7.71683 25.7572 9.62848 23.8455C10.3088 23.1652 11.1396 22.727 12.0137 22.5309C11.0971 19.6387 11.7855 16.3481 14.0789 14.0546C16.2639 11.8697 19.3539 11.1415 22.1421 11.87C22.3292 10.9672 22.773 10.107 23.4737 9.40631C25.3854 7.49465 28.4848 7.49465 30.3964 9.40631C32.3081 11.318 32.3081 14.4174 30.3964 16.329Z" fill="#1890FF"/>
<ellipse cx="20.0234" cy="19.9905" rx="5.10489" ry="5.1049" transform="rotate(-135 20.0234 19.9905)" fill="#1890FF"/>
<ellipse cx="26.9463" cy="12.7706" rx="3.35664" ry="3.35664" transform="rotate(-135 26.9463 12.7706)" fill="#1890FF"/>
<ellipse cx="13.1206" cy="27.2291" rx="3.35664" ry="3.35664" transform="rotate(-135 13.1206 27.2291)" fill="#1890FF"/>
<path d="M22.1856 17.5577L23.5998 12.8008L26.9425 16.1434L22.1856 17.5577Z" fill="#1890FF"/>
<path d="M17.8154 22.4438L16.4742 27.2738L13.079 23.8785L17.8154 22.4438Z" fill="#1890FF"/>
</svg>
