<svg width="117" height="32" viewBox="0 0 117 32" fill="none" xmlns="http://www.w3.org/2000/svg">
<path d="M40.542 8.38H50.53L49.958 11.042H42.984L42.148 15.068H47.912L47.384 17.532H41.62L40.234 24H37.22L40.542 8.38ZM55.7146 24.11C54.4679 24.11 53.4633 23.8827 52.7006 23.428C51.9526 22.9587 51.4099 22.328 51.0726 21.536C50.7353 20.7293 50.5666 19.8273 50.5666 18.83C50.5666 18.0527 50.6619 17.224 50.8526 16.344L52.5466 8.38H55.5606L53.8666 16.344C53.7199 17.0333 53.6466 17.686 53.6466 18.302C53.6466 19.182 53.8373 19.9227 54.2186 20.524C54.6146 21.1253 55.2966 21.426 56.2646 21.426C57.1593 21.426 57.9073 21.184 58.5086 20.7C59.1246 20.2013 59.6233 19.5633 60.0046 18.786C60.3859 18.0087 60.6719 17.1947 60.8626 16.344L62.5566 8.38H65.5706L63.8766 16.344C63.5686 17.7667 63.0626 19.072 62.3586 20.26C61.6693 21.4333 60.7673 22.372 59.6526 23.076C58.5526 23.7653 57.2399 24.11 55.7146 24.11ZM70.4046 24.176C69.3046 24.176 68.2413 24 67.2146 23.648C66.1879 23.2813 65.3153 22.7827 64.5966 22.152L66.4886 19.534C66.5913 19.71 66.8553 19.952 67.2806 20.26C67.7206 20.568 68.2633 20.8467 68.9086 21.096C69.5686 21.3307 70.2799 21.448 71.0426 21.448C71.9226 21.448 72.5753 21.2793 73.0006 20.942C73.4406 20.59 73.6606 20.128 73.6606 19.556C73.6606 19.1747 73.5139 18.8667 73.2206 18.632C72.9419 18.3827 72.5533 18.17 72.0546 17.994C71.5559 17.8033 70.9839 17.6053 70.3386 17.4C69.2386 17.048 68.4026 16.6227 67.8306 16.124C67.2586 15.6107 66.9726 14.914 66.9726 14.034C66.9726 13.1247 67.1486 12.318 67.5006 11.614C67.8673 10.8953 68.3586 10.2867 68.9746 9.788C69.6053 9.28933 70.3166 8.91533 71.1086 8.666C71.9006 8.402 72.7293 8.27 73.5946 8.27C74.6213 8.27 75.5453 8.446 76.3666 8.798C77.2026 9.15 77.8919 9.55333 78.4346 10.008L76.5646 12.472C76.4913 12.3253 76.2786 12.1347 75.9266 11.9C75.5746 11.6507 75.1346 11.4307 74.6066 11.24C74.0786 11.0347 73.5213 10.932 72.9346 10.932C72.0546 10.932 71.3946 11.1227 70.9546 11.504C70.5146 11.8853 70.2946 12.3913 70.2946 13.022C70.2946 13.5207 70.5439 13.8947 71.0426 14.144C71.5413 14.3933 72.2526 14.65 73.1766 14.914C73.9539 15.1487 74.6286 15.42 75.2006 15.728C75.7873 16.0213 76.2419 16.4027 76.5646 16.872C76.8873 17.3267 77.0486 17.9133 77.0486 18.632C77.0486 19.6147 76.8579 20.458 76.4766 21.162C76.1099 21.866 75.6113 22.438 74.9806 22.878C74.3499 23.318 73.6386 23.648 72.8466 23.868C72.0546 24.0733 71.2406 24.176 70.4046 24.176ZM81.6201 8.402H84.6341L81.3121 24H78.2981L81.6201 8.402ZM90.9296 24.11C90.0056 24.11 89.1842 23.934 88.4656 23.582C87.7469 23.23 87.1382 22.7533 86.6396 22.152C86.1556 21.536 85.7889 20.8393 85.5396 20.062C85.2902 19.2847 85.1656 18.4707 85.1656 17.62C85.1656 16.432 85.4149 15.2807 85.9136 14.166C86.4122 13.0513 87.0942 12.054 87.9596 11.174C88.8249 10.2793 89.8076 9.57533 90.9076 9.062C92.0076 8.534 93.1589 8.27 94.3616 8.27C95.2856 8.27 96.0996 8.45333 96.8036 8.82C97.5076 9.18667 98.1016 9.678 98.5856 10.294C99.0842 10.8953 99.4509 11.592 99.6856 12.384C99.9349 13.1613 100.06 13.968 100.06 14.804C100.06 15.9773 99.8102 17.1213 99.3116 18.236C98.8276 19.336 98.1529 20.3333 97.2876 21.228C96.4369 22.108 95.4616 22.812 94.3616 23.34C93.2762 23.8533 92.1322 24.11 90.9296 24.11ZM91.5236 21.426C92.3302 21.426 93.0636 21.2353 93.7236 20.854C94.3982 20.458 94.9776 19.9447 95.4616 19.314C95.9456 18.6833 96.3196 17.994 96.5836 17.246C96.8476 16.4833 96.9796 15.7427 96.9796 15.024C96.9796 14.2907 96.8549 13.6233 96.6056 13.022C96.3709 12.406 96.0116 11.9147 95.5276 11.548C95.0436 11.1667 94.4422 10.976 93.7236 10.976C92.9169 10.976 92.1762 11.1667 91.5016 11.548C90.8416 11.9293 90.2696 12.4353 89.7856 13.066C89.3016 13.6967 88.9202 14.3933 88.6416 15.156C88.3776 15.904 88.2456 16.6447 88.2456 17.378C88.2456 18.0967 88.3629 18.764 88.5976 19.38C88.8469 19.996 89.2136 20.4947 89.6976 20.876C90.1816 21.2427 90.7902 21.426 91.5236 21.426ZM103.921 8.38H106.275L111.599 18.632L113.777 8.402H116.791L113.469 24H111.027L105.725 13.99L103.613 24H100.599L103.921 8.38Z" fill="white"/>
<circle cx="16" cy="16" r="16" transform="rotate(-90 16 16)" fill="white"/>
<circle cx="16.0105" cy="15.9897" r="7.38462" transform="rotate(-135 16.0105 15.9897)" fill="#1890FF"/>
<circle cx="16.0105" cy="16.0771" r="4.49231" transform="rotate(-135 16.0105 16.0771)" fill="white"/>
<circle cx="22.1025" cy="9.72343" r="4.30769" transform="rotate(-135 22.1025 9.72343)" fill="#1890FF"/>
<circle cx="22.1025" cy="9.72351" r="2.95385" transform="rotate(-135 22.1025 9.72351)" fill="white"/>
<circle cx="9.9187" cy="22.43" r="4.30769" transform="rotate(-135 9.9187 22.43)" fill="#1890FF"/>
<circle cx="9.93604" cy="22.4471" r="2.95385" transform="rotate(-135 9.93604 22.4471)" fill="white"/>
<path d="M13.9975 18.6176L12.4748 23.2304L9.38465 20.1403L13.9975 18.6176Z" fill="white"/>
<path d="M18.2765 13.6007L19.7992 8.98786L22.8893 12.078L18.2765 13.6007Z" fill="white"/>
</svg>
