<svg width="33" height="33" viewBox="0 0 33 33" fill="none" xmlns="http://www.w3.org/2000/svg">
<path fill-rule="evenodd" clip-rule="evenodd" d="M32.7297 16.8198C32.7297 8.03302 25.6066 0.909915 16.8198 0.909914C8.03302 0.909914 0.909914 8.03302 0.909914 16.8198C0.909915 25.6066 8.03302 32.7297 16.8198 32.7297C25.6066 32.7297 32.7297 25.6066 32.7297 16.8198ZM25.9163 13.6071C25.3339 14.1895 24.6256 14.5691 23.8791 14.746C24.6059 17.237 23.9872 20.0375 22.0228 22.0018C20.1189 23.9058 17.4295 24.5456 14.9977 23.9213C14.856 24.7713 14.4574 25.5867 13.8017 26.2424C12.1289 27.9152 9.41674 27.9152 7.74396 26.2424C6.07117 24.5696 6.07117 21.8575 7.74396 20.1847C8.33925 19.5894 9.06617 19.206 9.83103 19.0344C9.02893 16.5036 9.63131 13.6241 11.6382 11.6172C13.55 9.70543 16.2537 9.06819 18.6934 9.7055C18.857 8.91541 19.2454 8.1626 19.8586 7.54943C21.5314 5.87665 24.2435 5.87665 25.9163 7.54943C27.5891 9.22222 27.5891 11.9343 25.9163 13.6071Z" fill="#1890FF"/>
<ellipse cx="16.8398" cy="16.8114" rx="4.46701" ry="4.46701" transform="rotate(-135 16.8398 16.8114)" fill="#1890FF"/>
<ellipse cx="22.8979" cy="10.4936" rx="2.93721" ry="2.93721" transform="rotate(-135 22.8979 10.4936)" fill="#1890FF"/>
<ellipse cx="10.7998" cy="23.1455" rx="2.93721" ry="2.93721" transform="rotate(-135 10.7998 23.1455)" fill="#1890FF"/>
<path d="M18.7319 14.6822L19.9693 10.5197L22.8943 13.4447L18.7319 14.6822Z" fill="#1890FF"/>
<path d="M14.9084 18.9582L13.7349 23.1847L10.7639 20.2137L14.9084 18.9582Z" fill="#1890FF"/>
</svg>
